<svg width="193" height="48" viewBox="0 0 193 48" fill="none" xmlns="http://www.w3.org/2000/svg">
<mask id="mask0_136_11216" style="mask-type:alpha" maskUnits="userSpaceOnUse" x="16" y="12" width="24" height="24">
<path d="M40 12H16V36H40V12Z" fill="#D9D9D9"/>
</mask>
<g mask="url(#mask0_136_11216)">
<path d="M16.95 25.3C16.65 24.7 16.4167 24.0917 16.25 23.475C16.0833 22.8583 16 22.2333 16 21.6C16 19.7333 16.6333 18.1667 17.9 16.9C19.1667 15.6333 20.7333 15 22.6 15C23.65 15 24.65 15.2208 25.6 15.6625C26.55 16.1042 27.35 16.7167 28 17.5C28.65 16.7167 29.45 16.1042 30.4 15.6625C31.35 15.2208 32.35 15 33.4 15C35.2667 15 36.8333 15.6333 38.1 16.9C39.3667 18.1667 40 19.7333 40 21.6C40 22.2333 39.9167 22.8583 39.75 23.475C39.5833 24.0917 39.35 24.7 39.05 25.3C38.8667 24.9833 38.65 24.7 38.4 24.45C38.15 24.2 37.8583 24 37.525 23.85C37.675 23.4667 37.7917 23.0917 37.875 22.725C37.9583 22.3583 38 21.9833 38 21.6C38 20.3 37.5583 19.2083 36.675 18.325C35.7917 17.4417 34.7 17 33.4 17C32.05 17 31.0125 17.3708 30.2875 18.1125C29.5625 18.8542 28.8 19.6833 28 20.6C27.2 19.6667 26.4375 18.8333 25.7125 18.1C24.9875 17.3667 23.95 17 22.6 17C21.3 17 20.2083 17.4417 19.325 18.325C18.4417 19.2083 18 20.3 18 21.6C18 21.9833 18.0417 22.3583 18.125 22.725C18.2083 23.0917 18.325 23.4667 18.475 23.85C18.1417 24 17.85 24.2 17.6 24.45C17.35 24.7 17.1333 24.9833 16.95 25.3ZM16 34V32.425C16 31.6917 16.3708 31.1042 17.1125 30.6625C17.8542 30.2208 18.8167 30 20 30C20.2167 30 20.425 30.0042 20.625 30.0125C20.825 30.0208 21.0167 30.0417 21.2 30.075C20.9667 30.4083 20.7917 30.7667 20.675 31.15C20.5583 31.5333 20.5 31.9417 20.5 32.375V34H16ZM22 34V32.375C22 31.2917 22.5542 30.4167 23.6625 29.75C24.7708 29.0833 26.2167 28.75 28 28.75C29.8 28.75 31.25 29.0833 32.35 29.75C33.45 30.4167 34 31.2917 34 32.375V34H22ZM35.5 34V32.375C35.5 31.9417 35.4458 31.5333 35.3375 31.15C35.2292 30.7667 35.0667 30.4083 34.85 30.075C35.0333 30.0417 35.2208 30.0208 35.4125 30.0125C35.6042 30.0042 35.8 30 36 30C37.2 30 38.1667 30.2208 38.9 30.6625C39.6333 31.1042 40 31.6917 40 32.425V34H35.5ZM28 30.75C27.05 30.75 26.2 30.875 25.45 31.125C24.7 31.375 24.2583 31.6667 24.125 32H31.9C31.75 31.6667 31.3042 31.375 30.5625 31.125C29.8208 30.875 28.9667 30.75 28 30.75ZM20 29C19.45 29 18.9792 28.8042 18.5875 28.4125C18.1958 28.0208 18 27.55 18 27C18 26.4333 18.1958 25.9583 18.5875 25.575C18.9792 25.1917 19.45 25 20 25C20.5667 25 21.0417 25.1917 21.425 25.575C21.8083 25.9583 22 26.4333 22 27C22 27.55 21.8083 28.0208 21.425 28.4125C21.0417 28.8042 20.5667 29 20 29ZM36 29C35.45 29 34.9792 28.8042 34.5875 28.4125C34.1958 28.0208 34 27.55 34 27C34 26.4333 34.1958 25.9583 34.5875 25.575C34.9792 25.1917 35.45 25 36 25C36.5667 25 37.0417 25.1917 37.425 25.575C37.8083 25.9583 38 26.4333 38 27C38 27.55 37.8083 28.0208 37.425 28.4125C37.0417 28.8042 36.5667 29 36 29ZM28 28C27.1667 28 26.4583 27.7083 25.875 27.125C25.2917 26.5417 25 25.8333 25 25C25 24.15 25.2917 23.4375 25.875 22.8625C26.4583 22.2875 27.1667 22 28 22C28.85 22 29.5625 22.2875 30.1375 22.8625C30.7125 23.4375 31 24.15 31 25C31 25.8333 30.7125 26.5417 30.1375 27.125C29.5625 27.7083 28.85 28 28 28ZM28 24C27.7167 24 27.4792 24.0958 27.2875 24.2875C27.0958 24.4792 27 24.7167 27 25C27 25.2833 27.0958 25.5208 27.2875 25.7125C27.4792 25.9042 27.7167 26 28 26C28.2833 26 28.5208 25.9042 28.7125 25.7125C28.9042 25.5208 29 25.2833 29 25C29 24.7167 28.9042 24.4792 28.7125 24.2875C28.5208 24.0958 28.2833 24 28 24Z" fill="#1C1B1F"/>
</g>
<path d="M62 17.625V29H59.8594V17.625H62ZM65.5312 17.625V19.3203H56.3672V17.625H65.5312ZM69.8672 29.1562C69.2266 29.1562 68.651 29.0521 68.1406 28.8438C67.6302 28.6354 67.1953 28.3464 66.8359 27.9766C66.4818 27.6016 66.2083 27.1667 66.0156 26.6719C65.8281 26.1719 65.7344 25.6354 65.7344 25.0625V24.75C65.7344 24.099 65.8281 23.5078 66.0156 22.9766C66.2031 22.4401 66.4688 21.9792 66.8125 21.5938C67.1562 21.2083 67.5677 20.9115 68.0469 20.7031C68.526 20.4948 69.0547 20.3906 69.6328 20.3906C70.2318 20.3906 70.7604 20.4922 71.2188 20.6953C71.6771 20.8932 72.0599 21.1745 72.3672 21.5391C72.6745 21.9036 72.9062 22.3411 73.0625 22.8516C73.2188 23.3568 73.2969 23.9167 73.2969 24.5312V25.3984H66.6719V23.9766H71.2656V23.8203C71.2552 23.4922 71.1927 23.1927 71.0781 22.9219C70.9635 22.6458 70.7865 22.4271 70.5469 22.2656C70.3073 22.099 69.9974 22.0156 69.6172 22.0156C69.3099 22.0156 69.0417 22.0833 68.8125 22.2188C68.5885 22.349 68.401 22.5365 68.25 22.7812C68.1042 23.0208 67.9948 23.3073 67.9219 23.6406C67.849 23.974 67.8125 24.3438 67.8125 24.75V25.0625C67.8125 25.4167 67.8594 25.7448 67.9531 26.0469C68.0521 26.349 68.1953 26.612 68.3828 26.8359C68.5755 27.0547 68.8047 27.2266 69.0703 27.3516C69.3411 27.4714 69.6484 27.5312 69.9922 27.5312C70.4245 27.5312 70.8151 27.4479 71.1641 27.2812C71.5182 27.1094 71.8255 26.8568 72.0859 26.5234L73.125 27.6016C72.9479 27.862 72.7083 28.112 72.4062 28.3516C72.1094 28.5911 71.75 28.7865 71.3281 28.9375C70.9062 29.0833 70.4193 29.1562 69.8672 29.1562ZM79.3359 27.2031V23.3047C79.3359 23.0182 79.2865 22.7708 79.1875 22.5625C79.0885 22.3542 78.9375 22.1927 78.7344 22.0781C78.5312 21.9635 78.2734 21.9062 77.9609 21.9062C77.6849 21.9062 77.4427 21.9531 77.2344 22.0469C77.0312 22.1406 76.875 22.2734 76.7656 22.4453C76.6562 22.612 76.6016 22.8047 76.6016 23.0234H74.5312C74.5312 22.6745 74.6146 22.3438 74.7812 22.0312C74.9479 21.7135 75.1849 21.4323 75.4922 21.1875C75.8047 20.9375 76.1771 20.7422 76.6094 20.6016C77.0469 20.4609 77.5365 20.3906 78.0781 20.3906C78.7188 20.3906 79.2891 20.5 79.7891 20.7188C80.2943 20.9323 80.6901 21.2552 80.9766 21.6875C81.2682 22.1198 81.4141 22.6641 81.4141 23.3203V27.0078C81.4141 27.4297 81.4401 27.7917 81.4922 28.0938C81.5495 28.3906 81.6328 28.6484 81.7422 28.8672V29H79.6406C79.5417 28.7865 79.4661 28.5156 79.4141 28.1875C79.362 27.8542 79.3359 27.526 79.3359 27.2031ZM79.625 23.8516L79.6406 25.0781H78.3359C78.013 25.0781 77.7292 25.112 77.4844 25.1797C77.2396 25.2422 77.0391 25.3359 76.8828 25.4609C76.7266 25.5807 76.6094 25.7266 76.5312 25.8984C76.4531 26.0651 76.4141 26.2552 76.4141 26.4688C76.4141 26.6771 76.4609 26.8646 76.5547 27.0312C76.6536 27.1979 76.7943 27.3307 76.9766 27.4297C77.1641 27.5234 77.3828 27.5703 77.6328 27.5703C77.9974 27.5703 78.3151 27.4974 78.5859 27.3516C78.8568 27.2005 79.0677 27.0182 79.2188 26.8047C79.3698 26.5911 79.4505 26.388 79.4609 26.1953L80.0547 27.0859C79.9818 27.2995 79.8724 27.526 79.7266 27.7656C79.5807 28.0052 79.3932 28.2292 79.1641 28.4375C78.9349 28.6458 78.6589 28.8177 78.3359 28.9531C78.013 29.0885 77.638 29.1562 77.2109 29.1562C76.6641 29.1562 76.1745 29.0469 75.7422 28.8281C75.3099 28.6094 74.9688 28.3099 74.7188 27.9297C74.4688 27.5495 74.3438 27.1172 74.3438 26.6328C74.3438 26.1849 74.4271 25.7891 74.5938 25.4453C74.7604 25.1016 75.0078 24.8125 75.3359 24.5781C75.6641 24.3385 76.0703 24.1589 76.5547 24.0391C77.0443 23.9141 77.6042 23.8516 78.2344 23.8516H79.625ZM85.3281 22.2812V29H83.2656V20.5469H85.2109L85.3281 22.2812ZM85.0234 24.4688H84.3906C84.3906 23.8802 84.4609 23.3385 84.6016 22.8438C84.7474 22.349 84.9609 21.9193 85.2422 21.5547C85.5234 21.1849 85.8698 20.8984 86.2812 20.6953C86.6979 20.4922 87.1797 20.3906 87.7266 20.3906C88.1068 20.3906 88.4557 20.4479 88.7734 20.5625C89.0911 20.6719 89.3646 20.8464 89.5938 21.0859C89.8281 21.3203 90.0078 21.6276 90.1328 22.0078C90.2578 22.3828 90.3203 22.8333 90.3203 23.3594V29H88.2578V23.5703C88.2578 23.1745 88.2005 22.8646 88.0859 22.6406C87.9766 22.4167 87.8177 22.2604 87.6094 22.1719C87.401 22.0781 87.151 22.0312 86.8594 22.0312C86.5365 22.0312 86.2578 22.0964 86.0234 22.2266C85.7943 22.3516 85.6042 22.526 85.4531 22.75C85.3073 22.974 85.1979 23.2318 85.125 23.5234C85.0573 23.8151 85.0234 24.1302 85.0234 24.4688ZM90.1641 24.0859L89.3125 24.2422C89.3177 23.7109 89.3906 23.2135 89.5312 22.75C89.6719 22.2812 89.8776 21.8724 90.1484 21.5234C90.4245 21.1693 90.7656 20.8932 91.1719 20.6953C91.5833 20.4922 92.0573 20.3906 92.5938 20.3906C93.0104 20.3906 93.3854 20.4505 93.7188 20.5703C94.0573 20.6849 94.3464 20.8698 94.5859 21.125C94.8255 21.375 95.0078 21.7005 95.1328 22.1016C95.263 22.5026 95.3281 22.9922 95.3281 23.5703V29H93.25V23.5625C93.25 23.151 93.1927 22.8359 93.0781 22.6172C92.9688 22.3984 92.8099 22.2474 92.6016 22.1641C92.3932 22.0755 92.1484 22.0312 91.8672 22.0312C91.5807 22.0312 91.3307 22.0859 91.1172 22.1953C90.9089 22.2995 90.7318 22.4453 90.5859 22.6328C90.4453 22.8203 90.3385 23.0391 90.2656 23.2891C90.1979 23.5339 90.1641 23.7995 90.1641 24.0859ZM97.1719 17H99.2422V27.1328L99.0391 29H97.1719V17ZM104.68 24.6875V24.8516C104.68 25.4818 104.609 26.0599 104.469 26.5859C104.333 27.112 104.128 27.5677 103.852 27.9531C103.576 28.3333 103.232 28.6302 102.82 28.8438C102.414 29.0521 101.938 29.1562 101.391 29.1562C100.87 29.1562 100.417 29.0547 100.031 28.8516C99.651 28.6484 99.3307 28.362 99.0703 27.9922C98.8099 27.6172 98.6016 27.1771 98.4453 26.6719C98.2891 26.1615 98.1719 25.6042 98.0938 25V24.5547C98.1719 23.9453 98.2891 23.388 98.4453 22.8828C98.6016 22.3776 98.8099 21.9375 99.0703 21.5625C99.3307 21.1875 99.651 20.8984 100.031 20.6953C100.411 20.4922 100.859 20.3906 101.375 20.3906C101.927 20.3906 102.409 20.4974 102.82 20.7109C103.237 20.9193 103.581 21.2161 103.852 21.6016C104.128 21.9818 104.333 22.4349 104.469 22.9609C104.609 23.4818 104.68 24.0573 104.68 24.6875ZM102.609 24.8516V24.6875C102.609 24.3281 102.581 23.9896 102.523 23.6719C102.466 23.349 102.372 23.0651 102.242 22.8203C102.112 22.5755 101.935 22.3828 101.711 22.2422C101.487 22.1016 101.206 22.0312 100.867 22.0312C100.544 22.0312 100.268 22.0859 100.039 22.1953C99.8151 22.3047 99.6276 22.4557 99.4766 22.6484C99.3307 22.8411 99.2161 23.0677 99.1328 23.3281C99.0547 23.5885 99.0026 23.8698 98.9766 24.1719V25.3906C99.013 25.7917 99.099 26.1536 99.2344 26.4766C99.3698 26.7943 99.5703 27.0469 99.8359 27.2344C100.107 27.4219 100.456 27.5156 100.883 27.5156C101.216 27.5156 101.495 27.4505 101.719 27.3203C101.943 27.1849 102.12 26.9974 102.25 26.7578C102.38 26.513 102.471 26.2292 102.523 25.9062C102.581 25.5833 102.609 25.2318 102.609 24.8516ZM109.977 29.1562C109.336 29.1562 108.76 29.0521 108.25 28.8438C107.74 28.6354 107.305 28.3464 106.945 27.9766C106.591 27.6016 106.318 27.1667 106.125 26.6719C105.938 26.1719 105.844 25.6354 105.844 25.0625V24.75C105.844 24.099 105.938 23.5078 106.125 22.9766C106.312 22.4401 106.578 21.9792 106.922 21.5938C107.266 21.2083 107.677 20.9115 108.156 20.7031C108.635 20.4948 109.164 20.3906 109.742 20.3906C110.341 20.3906 110.87 20.4922 111.328 20.6953C111.786 20.8932 112.169 21.1745 112.477 21.5391C112.784 21.9036 113.016 22.3411 113.172 22.8516C113.328 23.3568 113.406 23.9167 113.406 24.5312V25.3984H106.781V23.9766H111.375V23.8203C111.365 23.4922 111.302 23.1927 111.188 22.9219C111.073 22.6458 110.896 22.4271 110.656 22.2656C110.417 22.099 110.107 22.0156 109.727 22.0156C109.419 22.0156 109.151 22.0833 108.922 22.2188C108.698 22.349 108.51 22.5365 108.359 22.7812C108.214 23.0208 108.104 23.3073 108.031 23.6406C107.958 23.974 107.922 24.3438 107.922 24.75V25.0625C107.922 25.4167 107.969 25.7448 108.062 26.0469C108.161 26.349 108.305 26.612 108.492 26.8359C108.685 27.0547 108.914 27.2266 109.18 27.3516C109.451 27.4714 109.758 27.5312 110.102 27.5312C110.534 27.5312 110.924 27.4479 111.273 27.2812C111.628 27.1094 111.935 26.8568 112.195 26.5234L113.234 27.6016C113.057 27.862 112.818 28.112 112.516 28.3516C112.219 28.5911 111.859 28.7865 111.438 28.9375C111.016 29.0833 110.529 29.1562 109.977 29.1562ZM119.445 27.2031V23.3047C119.445 23.0182 119.396 22.7708 119.297 22.5625C119.198 22.3542 119.047 22.1927 118.844 22.0781C118.641 21.9635 118.383 21.9062 118.07 21.9062C117.794 21.9062 117.552 21.9531 117.344 22.0469C117.141 22.1406 116.984 22.2734 116.875 22.4453C116.766 22.612 116.711 22.8047 116.711 23.0234H114.641C114.641 22.6745 114.724 22.3438 114.891 22.0312C115.057 21.7135 115.294 21.4323 115.602 21.1875C115.914 20.9375 116.286 20.7422 116.719 20.6016C117.156 20.4609 117.646 20.3906 118.188 20.3906C118.828 20.3906 119.398 20.5 119.898 20.7188C120.404 20.9323 120.799 21.2552 121.086 21.6875C121.378 22.1198 121.523 22.6641 121.523 23.3203V27.0078C121.523 27.4297 121.549 27.7917 121.602 28.0938C121.659 28.3906 121.742 28.6484 121.852 28.8672V29H119.75C119.651 28.7865 119.576 28.5156 119.523 28.1875C119.471 27.8542 119.445 27.526 119.445 27.2031ZM119.734 23.8516L119.75 25.0781H118.445C118.122 25.0781 117.839 25.112 117.594 25.1797C117.349 25.2422 117.148 25.3359 116.992 25.4609C116.836 25.5807 116.719 25.7266 116.641 25.8984C116.562 26.0651 116.523 26.2552 116.523 26.4688C116.523 26.6771 116.57 26.8646 116.664 27.0312C116.763 27.1979 116.904 27.3307 117.086 27.4297C117.273 27.5234 117.492 27.5703 117.742 27.5703C118.107 27.5703 118.424 27.4974 118.695 27.3516C118.966 27.2005 119.177 27.0182 119.328 26.8047C119.479 26.5911 119.56 26.388 119.57 26.1953L120.164 27.0859C120.091 27.2995 119.982 27.526 119.836 27.7656C119.69 28.0052 119.503 28.2292 119.273 28.4375C119.044 28.6458 118.768 28.8177 118.445 28.9531C118.122 29.0885 117.747 29.1562 117.32 29.1562C116.773 29.1562 116.284 29.0469 115.852 28.8281C115.419 28.6094 115.078 28.3099 114.828 27.9297C114.578 27.5495 114.453 27.1172 114.453 26.6328C114.453 26.1849 114.536 25.7891 114.703 25.4453C114.87 25.1016 115.117 24.8125 115.445 24.5781C115.773 24.3385 116.18 24.1589 116.664 24.0391C117.154 23.9141 117.714 23.8516 118.344 23.8516H119.734ZM125.445 22.2734V29H123.383V20.5469H125.336L125.445 22.2734ZM128.016 20.4922L127.984 22.4141C127.87 22.3932 127.74 22.3776 127.594 22.3672C127.453 22.3568 127.32 22.3516 127.195 22.3516C126.878 22.3516 126.599 22.3958 126.359 22.4844C126.12 22.5677 125.919 22.6901 125.758 22.8516C125.602 23.013 125.482 23.2109 125.398 23.4453C125.315 23.6745 125.268 23.9349 125.258 24.2266L124.812 24.1719C124.812 23.6354 124.867 23.138 124.977 22.6797C125.086 22.2214 125.245 21.8203 125.453 21.4766C125.661 21.1328 125.922 20.8672 126.234 20.6797C126.552 20.487 126.917 20.3906 127.328 20.3906C127.443 20.3906 127.565 20.401 127.695 20.4219C127.831 20.4375 127.938 20.4609 128.016 20.4922ZM133.539 20.5469V22.0312H128.695V20.5469H133.539ZM129.992 18.4688H132.062V26.5625C132.062 26.8125 132.096 27.0052 132.164 27.1406C132.232 27.276 132.333 27.3672 132.469 27.4141C132.604 27.4609 132.766 27.4844 132.953 27.4844C133.089 27.4844 133.214 27.4766 133.328 27.4609C133.443 27.4453 133.539 27.4297 133.617 27.4141L133.625 28.9609C133.453 29.0182 133.258 29.0651 133.039 29.1016C132.826 29.138 132.583 29.1562 132.312 29.1562C131.849 29.1562 131.443 29.0781 131.094 28.9219C130.745 28.7604 130.474 28.5026 130.281 28.1484C130.089 27.7891 129.992 27.3151 129.992 26.7266V18.4688ZM139.945 26.9922V20.5469H142.023V29H140.07L139.945 26.9922ZM140.211 25.2422L140.852 25.2266C140.852 25.7943 140.789 26.3177 140.664 26.7969C140.539 27.276 140.344 27.6927 140.078 28.0469C139.818 28.3958 139.487 28.6693 139.086 28.8672C138.685 29.0599 138.211 29.1562 137.664 29.1562C137.247 29.1562 136.867 29.099 136.523 28.9844C136.18 28.8646 135.883 28.6797 135.633 28.4297C135.388 28.1745 135.198 27.849 135.062 27.4531C134.927 27.0521 134.859 26.5703 134.859 26.0078V20.5469H136.922V26.0234C136.922 26.3047 136.953 26.5391 137.016 26.7266C137.083 26.9141 137.174 27.0677 137.289 27.1875C137.409 27.3021 137.547 27.3854 137.703 27.4375C137.865 27.4844 138.036 27.5078 138.219 27.5078C138.719 27.5078 139.112 27.4089 139.398 27.2109C139.69 27.0078 139.898 26.737 140.023 26.3984C140.148 26.0547 140.211 25.6693 140.211 25.2422ZM145.875 22.3516V29H143.812V20.5469H145.75L145.875 22.3516ZM145.547 24.4688H144.938C144.943 23.8542 145.026 23.2969 145.188 22.7969C145.349 22.2969 145.576 21.8672 145.867 21.5078C146.164 21.1484 146.516 20.8724 146.922 20.6797C147.328 20.487 147.781 20.3906 148.281 20.3906C148.688 20.3906 149.055 20.4479 149.383 20.5625C149.711 20.6771 149.992 20.8594 150.227 21.1094C150.466 21.3594 150.648 21.6875 150.773 22.0938C150.904 22.4948 150.969 22.9896 150.969 23.5781V29H148.891V23.5625C148.891 23.1771 148.833 22.8724 148.719 22.6484C148.609 22.4245 148.448 22.2656 148.234 22.1719C148.026 22.0781 147.768 22.0312 147.461 22.0312C147.143 22.0312 146.865 22.0964 146.625 22.2266C146.391 22.3516 146.193 22.526 146.031 22.75C145.875 22.974 145.755 23.2318 145.672 23.5234C145.589 23.8151 145.547 24.1302 145.547 24.4688ZM158.164 20.5469H160.039V28.7422C160.039 29.5078 159.872 30.1562 159.539 30.6875C159.211 31.224 158.75 31.6302 158.156 31.9062C157.562 32.1875 156.872 32.3281 156.086 32.3281C155.747 32.3281 155.38 32.2812 154.984 32.1875C154.594 32.0938 154.216 31.9453 153.852 31.7422C153.492 31.5443 153.193 31.2865 152.953 30.9688L153.883 29.75C154.164 30.0781 154.482 30.3255 154.836 30.4922C155.19 30.6641 155.573 30.75 155.984 30.75C156.401 30.75 156.755 30.6719 157.047 30.5156C157.344 30.3646 157.57 30.1406 157.727 29.8438C157.888 29.5521 157.969 29.1927 157.969 28.7656V22.4766L158.164 20.5469ZM152.453 24.875V24.7109C152.453 24.0651 152.531 23.4792 152.688 22.9531C152.844 22.4219 153.068 21.9661 153.359 21.5859C153.656 21.2057 154.013 20.9115 154.43 20.7031C154.852 20.4948 155.326 20.3906 155.852 20.3906C156.409 20.3906 156.878 20.4922 157.258 20.6953C157.643 20.8984 157.961 21.1875 158.211 21.5625C158.466 21.9375 158.664 22.3828 158.805 22.8984C158.951 23.4089 159.062 23.9714 159.141 24.5859V25.0312C159.068 25.6302 158.951 26.1797 158.789 26.6797C158.633 27.1797 158.424 27.6172 158.164 27.9922C157.904 28.362 157.581 28.6484 157.195 28.8516C156.81 29.0547 156.357 29.1562 155.836 29.1562C155.315 29.1562 154.846 29.0495 154.43 28.8359C154.013 28.6224 153.656 28.3229 153.359 27.9375C153.068 27.5521 152.844 27.099 152.688 26.5781C152.531 26.0573 152.453 25.4896 152.453 24.875ZM154.516 24.7109V24.875C154.516 25.2396 154.552 25.5807 154.625 25.8984C154.698 26.2161 154.81 26.4974 154.961 26.7422C155.112 26.9818 155.302 27.1693 155.531 27.3047C155.76 27.4401 156.034 27.5078 156.352 27.5078C156.779 27.5078 157.128 27.4193 157.398 27.2422C157.674 27.0599 157.883 26.8125 158.023 26.5C158.169 26.1823 158.263 25.8255 158.305 25.4297V24.2031C158.279 23.8906 158.221 23.6016 158.133 23.3359C158.049 23.0703 157.932 22.8411 157.781 22.6484C157.63 22.4557 157.438 22.3047 157.203 22.1953C156.969 22.0859 156.69 22.0312 156.367 22.0312C156.055 22.0312 155.781 22.1016 155.547 22.2422C155.312 22.3776 155.12 22.5677 154.969 22.8125C154.818 23.0573 154.703 23.3411 154.625 23.6641C154.552 23.987 154.516 24.3359 154.516 24.7109Z" fill="#1C1B1F"/>
</svg>
